Coordinates
version=1
nRows=19
nColumns=27
inDegrees=yes

Units are S.I. units (second, meters, Newtons, ...)
If the header above contains a line with 'inDegrees', this indicates whether rotational values are in degrees (yes) or radians (no).

endheader
time	pelvis_rotation	pelvis_tilt	pelvis_list	pelvis_tx	pelvis_ty	pelvis_tz	hip_flexion_r	hip_adduction_r	hip_rotation_r	knee_angle_r	knee_rotation_r	knee_adduction_r	knee_angle_r_beta	ankle_angle_r	subtalar_angle_r	mtp_angle_r	hip_flexion_l	hip_adduction_l	hip_rotation_l	knee_angle_l	knee_rotation_l	knee_adduction_l	knee_angle_l_beta	ankle_angle_l	subtalar_angle_l	mtp_angle_l
      3.72000000	      4.31268021	    -27.81102729	      4.20824574	     -0.00381413	      0.63455394	     -1.11612524	     92.59541973	    -44.92053277	      1.25102832	     80.62739276	      0.00000000	      9.90425292	      1.40721347	      9.57532072	      0.00000000	      0.00000000	     87.22083458	    -34.09274966	      0.11727499	     73.41203374	      0.00000000	     -9.91512803	      1.28128170	      7.02970161	      0.00000000	      0.00000000
      3.72500000	      4.40433141	    -27.90938807	      4.09030804	     -0.00395235	      0.63301736	     -1.11610044	     92.80128503	    -45.03046595	      1.23499587	     80.86704052	      0.00000000	      9.90483904	      1.41139611	      9.62367400	      0.00000000	      0.00000000	     87.74716427	    -34.08497164	      0.49015818	     73.71446160	      0.00000000	     -9.91593563	      1.28656006	      7.05023057	      0.00000000	      0.00000000
      3.73000000	      4.32841214	    -27.84249091	      4.31562781	     -0.00402966	      0.63124069	     -1.11613053	     93.40121160	    -44.96444128	      1.94189814	     81.22326086	      0.00000000	      9.90551119	      1.41761333	      9.72921345	      0.00000000	      0.00000000	     87.74370990	    -34.27063472	      0.23427663	     73.99464309	      0.00000000	     -9.91718044	      1.29145015	      7.08303336	      0.00000000	      0.00000000
      3.73500000	      4.38220667	    -27.86296320	      4.31946508	     -0.00411063	      0.62957529	     -1.11610816	     93.72340986	    -45.03980272	      2.16823963	     81.51154709	      0.00000000	      9.90618335	      1.42264488	      9.81579679	      0.00000000	      0.00000000	     88.08032746	    -34.31563311	      0.39972952	     74.29309736	      0.00000000	     -9.91798090	      1.29665916	      7.10472535	      0.00000000	      0.00000000
      3.74000000	      4.47370752	    -27.95283222	      3.93569697	     -0.00418369	      0.62801927	     -1.11601069	     93.57009007	    -45.17549870	      1.70506576	     81.70472683	      0.00000000	      9.90682691	      1.42601650	      9.91877136	      0.00000000	      0.00000000	     88.85990749	    -34.32461862	      1.13769131	     74.65994435	      0.00000000	     -9.91872993	      1.30306185	      7.09583757	      0.00000000	      0.00000000
      3.74500000	      4.47953794	    -27.91600885	      4.33253298	     -0.00426789	      0.62623661	     -1.11602190	     94.39371877	    -45.16117623	      2.65153778	     82.09541632	      0.00000000	      9.90738921	      1.43283532	      9.98646186	      0.00000000	      0.00000000	     88.75568663	    -34.41336229	      0.72061574	     74.88396928	      0.00000000	     -9.91968696	      1.30697182	      7.15011941	      0.00000000	      0.00000000
      3.75000000	      4.59546812	    -28.00326251	      4.09171518	     -0.00433071	      0.62460886	     -1.11591104	     94.42843533	    -45.31308552	      2.42543507	     82.33030825	      0.00000000	      9.90805467	      1.43693495	     10.09594737	      0.00000000	      0.00000000	     89.41828861	    -34.38954827	      1.29098429	     75.22670421	      0.00000000	     -9.92040582	      1.31295367	      7.16026673	      0.00000000	      0.00000000
      3.75500000	      4.58758303	    -27.95009888	      4.34307596	     -0.00433474	      0.62286978	     -1.11586155	     95.04151241	    -45.29502173	      3.12677688	     82.68967100	      0.00000000	      9.90855187	      1.44320702	     10.16394578	      0.00000000	      0.00000000	     89.41761445	    -34.51027269	      1.04916186	     75.47447481	      0.00000000	     -9.92122283	      1.31727809	      7.19741137	      0.00000000	      0.00000000
      3.76000000	      4.69945002	    -27.93338417	      4.31650709	     -0.00430202	      0.62124032	     -1.11577242	     95.25006536	    -45.43435434	      3.26123234	     82.96777258	      0.00000000	      9.90916814	      1.44806080	     10.24509496	      0.00000000	      0.00000000	     89.75538577	    -34.49284991	      1.29329039	     75.75978304	      0.00000000	     -9.92196200	      1.32225765	      7.21331421	      0.00000000	      0.00000000
      3.76500000	      4.75121295	    -27.96686794	      4.38393582	     -0.00432985	      0.61954084	     -1.11565602	     95.67751332	    -45.48289354	      3.61096129	     83.28426680	      0.00000000	      9.90977563	      1.45358467	     10.34227257	      0.00000000	      0.00000000	     90.04453998	    -34.54483386	      1.37637229	     76.03905183	      0.00000000	     -9.92276693	      1.32713181	      7.24094962	      0.00000000	      0.00000000
      3.77000000	      4.76964294	    -27.98115169	      4.38497290	     -0.00432757	      0.61787732	     -1.11550438	     95.99602393	    -45.49499807	      3.86752182	     83.57878412	      0.00000000	      9.91025555	      1.45872497	     10.46331099	      0.00000000	      0.00000000	     90.35563294	    -34.63869387	      1.51621410	     76.32279512	      0.00000000	     -9.92349098	      1.33208407	      7.23832258	      0.00000000	      0.00000000
      3.77500000	      4.84099463	    -27.98890219	      4.39818816	     -0.00431401	      0.61623275	     -1.11536297	     96.30616134	    -45.56903519	      4.10654595	     83.87265434	      0.00000000	      9.91078919	      1.46385397	     10.55344640	      0.00000000	      0.00000000	     90.66451144	    -34.66846743	      1.67928953	     76.59466331	      0.00000000	     -9.92421243	      1.33682906	      7.25281978	      0.00000000	      0.00000000
      3.78000000	      4.88705051	    -28.00323783	      4.40082557	     -0.00428502	      0.61457816	     -1.11517939	     96.61882409	    -45.60937819	      4.35070168	     84.17549976	      0.00000000	      9.91138736	      1.46913962	     10.66360118	      0.00000000	      0.00000000	     90.98319243	    -34.73499148	      1.83265906	     76.87220017	      0.00000000	     -9.92500499	      1.34167300	      7.24939525	      0.00000000	      0.00000000
      3.78500000	      4.94840804	    -28.00627986	      4.41654575	     -0.00425802	      0.61292520	     -1.11500413	     96.92586686	    -45.67074052	      4.59362560	     84.46850703	      0.00000000	      9.91184809	      1.47425356	     10.76550910	      0.00000000	      0.00000000	     91.28055580	    -34.77896387	      1.98720339	     77.14101283	      0.00000000	     -9.92570029	      1.34636466	      7.26417400	      0.00000000	      0.00000000
      3.79000000	      5.03477950	    -28.01887498	      4.42599023	     -0.00422317	      0.61126667	     -1.11481698	     97.23029430	    -45.75451934	      4.82443612	     84.76470924	      0.00000000	      9.91232646	      1.47942327	     10.87331096	      0.00000000	      0.00000000	     91.60296216	    -34.79542510	      2.16686200	     77.40970039	      0.00000000	     -9.92629619	      1.35105414	      7.28301606	      0.00000000	      0.00000000
      3.79500000	      5.09583880	    -28.01783698	      4.44097077	     -0.00419061	      0.60960745	     -1.11461275	     97.53799656	    -45.80813364	      5.07957808	     85.06562410	      0.00000000	      9.91279573	      1.48467522	     10.98852997	      0.00000000	      0.00000000	     91.89733890	    -34.84676946	      2.31331949	     77.67524755	      0.00000000	     -9.92697132	      1.35568882	      7.28783993	      0.00000000	      0.00000000
      3.80000000	      5.15549306	    -28.02197405	      4.43953085	     -0.00416535	      0.60792233	     -1.11439891	     97.83460671	    -45.86479354	      5.30778660	     85.36669981	      0.00000000	      9.91325197	      1.48992998	     11.09258148	      0.00000000	      0.00000000	     92.21638944	    -34.89787288	      2.48621109	     77.94750728	      0.00000000	     -9.92764001	      1.36044065	      7.29751580	      0.00000000	      0.00000000
      3.80500000	      5.17987801	    -28.05790611	      4.44870680	     -0.00417721	      0.60625451	     -1.11418002	     98.18511382	    -45.85729479	      5.58265534	     85.66499115	      0.00000000	      9.91364335	      1.49513615	     11.21603716	      0.00000000	      0.00000000	     92.54447822	    -34.98638257	      2.62719667	     78.21587941	      0.00000000	     -9.92834031	      1.36512462	      7.29373672	      0.00000000	      0.00000000
      3.81000000	      5.26314309	    -28.03997649	      4.47233846	     -0.00415886	      0.60455570	     -1.11397881	     98.48846161	    -45.93632269	      5.84585473	     85.96598673	      0.00000000	      9.91402614	      1.50038951	     11.31235230	      0.00000000	      0.00000000	     92.82325930	    -35.00114492	      2.78817105	     78.48027267	      0.00000000	     -9.92890814	      1.36973916	      7.31724336	      0.00000000	      0.00000000
